<?xml version="1.0" encoding="utf-8"?>
<svg xmlns="http://www.w3.org/2000/svg" viewBox="63.56 212.3635 391.0292 61.9231" width="469.906pt" height="336.261pt" xmlns:bx="https://boxy-svg.com" preserveAspectRatio="none"><defs><linearGradient id="color-0" bx:pinned="true" gradientUnits="userSpaceOnUse" gradientTransform="matrix(0.969625, 0, 0, 0.976776, 2.49552, 0.854315)"><stop style="stop-color: rgb(211, 193, 157);"/></linearGradient><linearGradient id="color-3" bx:pinned="true" gradientUnits="userSpaceOnUse" gradientTransform="matrix(0.969625, 0, 0, 0.976776, 2.118743, 0.221723)"><stop style="stop-color: rgb(118, 136, 131);"/></linearGradient><linearGradient id="color-1" bx:pinned="true" gradientUnits="userSpaceOnUse"><stop style="stop-color: rgb(255, 255, 255);"/></linearGradient></defs><g id="object-8"><path d="M 153.979 262.812 C 156.201 263.076 158.899 263.658 159.957 264.028 L 161.861 264.663 L 156.889 267.149 C 147.208 271.857 142.871 272.809 130.228 272.756 L 120.706 272.756 L 124.515 271.275 C 128.429 269.741 136.311 265.615 139.485 263.499 C 141.019 262.441 141.971 262.23 145.674 262.23 C 148.055 262.23 151.81 262.494 153.979 262.812 Z" style="fill: url(&quot;#color-0&quot;); stroke: url(&quot;#color-3&quot;);" id="object-0"/><path d="M 84.101 265.134 C 88.703 269.26 97.273 273.069 102.509 273.333 C 104.996 273.439 99.547 274.285 96.056 274.285 C 87.063 274.391 70.348 269.313 64.106 264.658 C 63.153 263.917 63.259 263.865 65.957 263.336 C 70.718 262.383 71.3 262.331 76.166 262.225 L 80.874 262.172 L 84.101 265.134 Z" style="fill: url(&quot;#color-0&quot;); stroke: url(&quot;#color-3&quot;);" id="object-1"/><path d="M 154.12 233.388 C 153.009 241.111 149.835 249.416 145.921 254.547 C 141.107 260.948 125.026 269.729 116.139 270.84 L 113.071 271.263 L 113.442 267.878 C 114.5 258.673 118.202 249.734 122.857 245.132 C 126.772 241.27 131.268 238.202 137.034 235.451 C 143.012 232.542 146.714 231.537 151.105 231.484 L 154.385 231.431 L 154.12 233.388 Z" style="fill-rule: nonzero; fill: rgb(211, 193, 157); stroke: url(&quot;#color-3&quot;);" id="object-2"/><path d="M 76.695 232.871 C 85.741 234.458 92.829 237.844 97.484 242.763 C 104.096 249.799 111.449 263.817 111.449 269.371 L 111.449 271.222 L 108.699 271.222 C 103.885 271.222 96.215 269.318 91.507 266.991 C 88.015 265.245 86.429 264.081 83.043 260.431 C 75.584 252.444 70.189 241.018 70.189 233.295 C 70.189 231.813 70.559 231.813 76.695 232.871 Z" style="fill: url(&quot;#color-0&quot;); stroke: url(&quot;#color-3&quot;);" id="object-3"/><path d="M 136.059 223.042 C 136.572 224.798 137.188 227.589 137.393 229.138 L 137.752 232.032 L 134.725 233.737 C 133.084 234.667 130.725 236.166 129.392 237.147 L 127.084 238.852 L 126.519 234.875 C 126.16 232.653 125.544 229.811 125.134 228.57 L 124.314 226.245 L 126.211 224.54 C 127.905 223.042 133.648 219.786 134.623 219.786 C 134.88 219.786 135.495 221.232 136.059 223.042 Z" style="fill: url(&quot;#color-0&quot;); stroke: url(&quot;#color-3&quot;);" id="object-4"/><path d="M 93.4 221.529 C 95.304 222.693 97.579 224.227 98.478 224.915 L 100.012 226.237 L 99.166 229.041 C 98.637 230.628 97.949 233.59 97.632 235.653 L 96.944 239.409 L 94.141 237.134 C 92.554 235.865 90.067 234.172 88.586 233.431 L 85.888 232.056 L 86.206 229.094 C 86.629 225.444 88.586 219.466 89.38 219.466 C 89.697 219.466 91.496 220.419 93.4 221.529 Z" style="fill: url(&quot;#color-0&quot;); stroke: url(&quot;#color-3&quot;);" id="object-5"/><path d="M 116.36 217.292 C 120.879 223.823 123.165 229.765 123.546 235.814 L 123.819 240.47 L 121.042 243.468 C 117.721 247.001 114.781 252.675 113.42 258.028 C 112.44 261.775 111.678 263.487 111.678 261.828 C 111.678 260.436 106.995 251.658 103.511 246.412 L 100.081 241.327 L 100.734 236.777 C 101.551 231.049 104.219 223.181 106.614 219.273 C 108.847 215.633 111.732 212.207 112.494 212.369 C 112.82 212.422 114.508 214.669 116.36 217.292 Z" style="fill: url(&quot;#color-0&quot;); stroke: url(&quot;#color-3&quot;);" id="object-6"/><g transform="matrix(0.068624, 0, 0, -0.068624, 140.291336, 410.578247)" fill="#000000" stroke="none" style="" id="object-7"><path d="M569 2716 c-125 -34 -189 -126 -159 -235 19 -73 81 -111 231 -141 133 -27 137 -28 148 -49 14 -25 -1 -41 -45 -51 -56 -13 -112 4 -132 41 l-17 29 -102 0 -103 0 0 -25 c0 -58 54 -120 135 -156 76 -34 239 -39 332 -10 97 30 137 69 152 147 13 66 0 119 -38 158 -37 39 -94 60 -221 82 -108 18 -147 41 -118 70 10 11 34 17 68 17 46 1 56 -3 74 -26 21 -26 25 -27 124 -27 97 0 102 1 102 21 0 33 -38 92 -75 117 -18 13 -57 30 -87 38 -64 17 -206 17 -269 0z" style="fill: url(&quot;#color-1&quot;);"/><path d="M1245 2717 c-94 -31 -149 -80 -186 -162 -33 -72 -32 -208 0 -282 28 -64 91 -124 157 -149 70 -27 248 -27 318 0 66 25 129 85 157 149 33 74 32 210 0 284 -27 61 -84 116 -150 146 -58 26 -233 34 -296 14z m181 -152 c45 -18 64 -63 64 -150 0 -81 -19 -129 -59 -149 -61 -32 -132 -9 -157 49 -18 45 -18 156 1 201 9 22 26 40 47 49 42 18 61 18 104 0z" style="fill: url(&quot;#color-1&quot;);"/><path d="M2747 2709 c-21 -11 -46 -34 -57 -51 l-18 -31 -7 47 -7 46 -94 0 -94 0 0 -305 0 -305 114 0 114 0 4 175 3 175 31 31 c28 28 40 32 102 37 l70 5 -10 -49 c-20 -107 13 -232 80 -297 68 -66 119 -82 262 -82 114 0 130 2 180 26 30 15 69 41 87 58 32 32 63 105 63 148 0 24 0 24 -107 21 l-108 -3 -3 -27 c-7 -58 -98 -93 -166 -64 -47 20 -66 63 -66 151 0 88 19 131 66 151 70 29 142 -2 158 -68 l6 -28 112 0 111 0 -7 46 c-12 88 -61 147 -161 191 -31 14 -68 18 -165 18 -110 0 -131 -3 -175 -23 -59 -27 -118 -82 -137 -126 -12 -29 -13 -26 -18 59 l-5 90 -60 2 c-44 2 -70 -3 -98 -18z" style="fill: url(&quot;#color-1&quot;);"/><path d="M3805 2717 c-94 -32 -149 -80 -186 -162 -33 -72 -32 -208 0 -282 27 -61 82 -115 149 -146 41 -18 65 -21 182 -22 121 0 140 3 187 24 63 28 118 85 132 138 18 65 22 63 -104 63 -105 0 -115 -2 -115 -18 0 -10 -11 -29 -25 -42 -31 -29 -118 -33 -158 -7 -26 17 -54 88 -42 107 4 6 95 10 231 10 l224 0 0 35 c0 49 -20 134 -41 176 -22 45 -69 85 -129 112 -58 25 -244 34 -305 14z m180 -141 c36 -15 55 -42 55 -75 0 -20 -6 -21 -105 -21 -102 0 -105 1 -105 23 1 32 23 57 67 72 48 18 47 18 88 1z" style="fill: url(&quot;#color-1&quot;);"/><path d="M1760 2491 c0 -146 4 -240 12 -262 30 -89 91 -129 198 -129 74 0 127 20 182 69 l36 31 6 -45 7 -45 95 0 94 0 0 305 0 305 -115 0 -115 0 0 -194 0 -194 -26 -31 c-21 -25 -33 -31 -65 -31 -26 0 -46 7 -59 20 -19 19 -20 33 -20 225 l0 205 -115 0 -115 0 0 -229z" style="fill: url(&quot;#color-1&quot;);"/><path d="M4330 2225 l0 -115 125 0 125 0 0 115 0 115 -125 0 -125 0 0 -115z" style="fill: url(&quot;#color-1&quot;);"/></g></g></svg>