<svg version="1.1" id="Layer_1" xmlns="http://www.w3.org/2000/svg" xmlns:xlink="http://www.w3.org/1999/xlink" x="0px" y="0px"
	 width="100%" viewBox="0 0 496 496" enable-background="new 0 0 496 496" xml:space="preserve">
<path fill="#000000" opacity="1.000000" stroke="none" 
	d="
M153.293365,438.699036 
	C146.617722,428.130371 135.561020,424.009766 125.956848,417.814941 
	C112.106377,408.881287 98.658302,399.297607 89.549500,384.994141 
	C88.095978,382.711639 86.895599,380.365112 86.442978,377.695770 
	C84.330704,365.238434 81.456657,352.942657 79.534019,340.418030 
	C77.360115,326.256500 75.034027,311.863922 68.014465,298.860748 
	C64.429085,292.219116 65.364609,284.747437 66.282936,277.738007 
	C68.484436,260.934418 69.196228,243.913040 73.905396,227.447617 
	C77.801765,213.824097 80.651566,199.817917 90.938042,189.110260 
	C95.186874,184.687439 99.480545,180.341629 105.429672,177.958694 
	C111.449936,175.547256 115.632004,170.565659 119.895767,165.965591 
	C125.014122,160.443527 130.634277,155.608902 136.632858,151.093689 
	C142.033173,147.028793 145.735977,141.520248 148.665497,135.419708 
	C156.012589,120.119858 167.479965,109.751259 184.691223,107.258194 
	C194.713287,105.806488 204.665848,103.492653 214.929474,103.861427 
	C217.363937,103.948891 220.162476,103.621719 222.233719,102.474525 
	C233.155807,96.425156 245.486481,95.844658 257.196869,92.840401 
	C266.363464,90.488754 275.203003,88.648232 284.670502,91.576828 
	C288.497986,92.760796 292.940491,91.928810 297.101288,92.069031 
	C303.804321,92.294930 310.392700,93.126129 316.499115,96.166351 
	C324.635193,100.217125 333.683472,101.257355 342.232300,103.961838 
	C358.543182,109.121887 372.441528,118.349800 385.872406,128.564468 
	C392.229767,133.399460 398.826599,138.070450 406.071625,141.408936 
	C419.985626,147.820496 429.871155,158.810791 439.831726,169.785751 
	C444.869354,175.336426 450.318268,180.443039 455.674500,185.670197 
	C465.985901,195.733109 477.231964,205.398849 483.809265,218.373932 
	C489.755066,230.103241 488.261658,242.722885 482.652954,254.589645 
	C477.975494,264.486084 474.340179,274.931763 466.727631,283.288879 
	C464.317505,285.934814 463.579865,289.820679 462.802307,293.447510 
	C460.632568,303.567535 457.425842,313.218475 452.501770,322.493774 
	C448.888763,329.299377 447.427826,337.228241 444.813080,344.587372 
	C440.636658,356.341644 436.721802,368.221008 428.684570,378.153290 
	C420.968719,387.688354 412.542725,395.762238 400.545227,400.366333 
	C391.332886,403.901642 383.744690,410.898071 376.545166,417.908234 
	C358.685425,435.298096 337.054993,443.633453 312.273438,444.064911 
	C305.444183,444.183807 298.609741,443.979401 291.779083,444.054016 
	C287.880920,444.096588 284.195892,443.363007 280.552856,442.012878 
	C269.205292,437.807434 258.196899,439.073242 247.017075,443.340881 
	C233.200439,448.615082 219.156281,455.268402 204.171738,453.638153 
	C189.016541,451.989410 173.086212,452.199341 159.288147,443.709259 
	C157.129852,442.381195 155.235916,440.803589 153.293365,438.699036 
M182.507874,265.026886 
	C185.656494,270.333313 189.334381,275.254547 193.210419,280.050415 
	C205.764709,295.584015 222.966293,301.128571 241.954147,302.582855 
	C247.902542,303.038452 249.265579,300.854797 247.973846,294.970551 
	C246.894882,290.055542 245.151382,285.383331 242.822891,280.968475 
	C235.911499,267.864441 229.121536,254.565262 217.442093,244.906113 
	C205.173492,234.759705 190.217194,231.445068 174.887283,229.536316 
	C170.925400,229.042999 171.365189,231.939728 171.604019,234.559021 
	C172.592834,245.402756 176.780380,255.103195 182.507874,265.026886 
M253.805450,301.074493 
	C257.072845,304.503540 260.955719,302.897064 264.468903,302.015869 
	C277.902222,298.646484 289.608887,291.575989 301.237305,284.367615 
	C309.070709,279.511749 315.097046,272.978485 319.643982,265.028503 
	C324.833344,255.955353 327.754852,246.085663 329.527313,235.867371 
	C330.447571,230.562210 329.240845,229.290085 323.752167,229.363205 
	C313.622864,229.498138 304.627838,233.493866 295.902557,238.067093 
	C283.411743,244.613968 271.741699,252.230728 264.208557,264.718872 
	C257.605133,275.665741 255.060287,287.807861 253.805450,301.074493 
M268.320770,225.136826 
	C265.296631,216.772751 261.141144,209.022217 255.743530,201.945374 
	C251.720520,196.670761 250.570786,196.561920 246.410690,201.767105 
	C237.093399,213.425018 233.103592,227.222366 230.163528,241.568924 
	C228.904327,247.713425 230.193893,252.407516 233.883057,257.254761 
	C239.542389,264.690643 243.996353,272.918060 247.901138,281.423462 
	C248.500656,282.729279 248.706863,284.370697 250.353653,284.974762 
	C252.163345,282.858765 252.169235,282.860535 252.892197,280.437683 
	C255.726669,270.938660 259.032593,261.401337 266.392456,254.592636 
	C272.580933,248.867630 272.352661,242.475204 271.191010,235.493561 
	C270.648468,232.232941 269.484833,229.075684 268.320770,225.136826 
M295.391785,292.957214 
	C288.659546,297.345367 281.175110,300.359039 273.328552,304.078278 
	C288.787720,310.695892 334.979736,300.683929 340.179474,289.801910 
	C332.415283,286.814209 324.237610,287.298584 316.279755,286.286560 
	C308.418182,285.286804 302.011871,288.054413 295.391785,292.957214 
M185.209290,300.174408 
	C203.388962,306.319611 219.918320,308.335693 225.570786,305.065063 
	C224.343033,303.764618 222.638901,303.669312 221.091751,303.170868 
	C212.975357,300.555878 204.535278,297.837219 198.873703,291.393372 
	C193.201019,284.936859 186.770996,283.420532 178.978027,284.325775 
	C177.991577,284.440338 176.935852,284.196899 175.997025,284.442932 
	C171.230499,285.691956 165.795441,284.591156 160.729263,288.704926 
	C168.290390,294.329071 176.390533,297.093994 185.209290,300.174408 
M205.889008,232.335419 
	C211.987076,236.139694 218.085144,239.943970 224.017395,243.644806 
	C227.080276,240.976974 226.620346,237.689514 227.300735,234.880478 
	C230.949829,219.814804 230.877975,219.796890 216.964828,212.228241 
	C216.380676,211.910477 215.772385,211.636337 215.193817,211.309174 
	C212.141968,209.583481 210.253128,210.585785 209.001495,213.715515 
	C206.694717,219.483612 205.330750,225.406738 205.889008,232.335419 
M291.549622,211.025986 
	C286.515808,210.256363 274.678802,216.719681 272.852295,221.309021 
	C272.563812,222.033966 272.487762,222.962936 272.647736,223.727676 
	C273.768616,229.085907 275.012695,234.418304 276.145081,239.774231 
	C276.872375,243.214111 278.741638,243.143127 281.238678,241.625214 
	C285.365784,239.116394 289.490509,236.602112 293.661560,234.167786 
	C295.740356,232.954544 297.020142,231.349380 296.510834,228.877182 
	C295.307434,223.036011 294.834747,217.000244 291.549622,211.025986 
z"/>
</svg>