<svg width="638" height="90" viewBox="0 0 638 90" fill="none" xmlns="http://www.w3.org/2000/svg">
<path d="M233.563 72.5318H218.149V45.6092C218.149 41.3619 217.293 38.3477 215.58 36.5666C213.867 34.7854 210.785 33.8949 206.332 33.8949C201.674 33.8949 198.488 34.8882 196.775 36.8748C195.131 38.8615 194.309 42.0812 194.309 46.5341H192.357L191.124 36.8748H194.104C194.515 33.9291 195.405 31.1889 196.775 28.6542C198.214 26.1195 200.303 24.0644 203.044 22.4887C205.852 20.8446 209.449 20.0226 213.833 20.0226C218.286 20.0226 221.951 20.9131 224.828 22.6943C227.774 24.4754 229.966 26.9073 231.405 29.9901C232.843 33.0728 233.563 36.5666 233.563 40.4714V72.5318ZM155.056 72.5318H139.642V21.0501H153.925V37.0803L155.056 37.5941V72.5318ZM194.309 72.5318H178.896V45.6092C178.896 41.3619 178.039 38.3477 176.327 36.5666C174.614 34.7854 171.531 33.8949 167.078 33.8949C162.352 33.8949 159.166 34.8882 157.522 36.8748C155.878 38.8615 155.056 42.0812 155.056 46.5341H153.103L151.973 36.6693H154.747C155.227 33.7921 156.152 31.1204 157.522 28.6542C158.892 26.1195 160.913 24.0644 163.585 22.4887C166.256 20.8446 169.75 20.0226 174.066 20.0226C178.519 20.0226 182.15 20.9474 184.958 22.797C187.835 24.6467 189.959 27.1128 191.329 30.1956C192.699 33.2783 193.384 36.7036 193.384 40.4714H194.309V72.5318Z" fill="black"/>
<path d="M268.73 73.5593C263.044 73.5593 258.009 72.6003 253.624 70.6821C249.24 68.764 245.849 65.8183 243.451 61.845C241.054 57.8717 239.855 52.8708 239.855 46.8423C239.855 41.3619 241.054 36.6351 243.451 32.6618C245.849 28.62 249.172 25.503 253.419 23.3108C257.735 21.1186 262.736 20.0226 268.422 20.0226C274.039 20.0226 278.937 20.9816 283.116 22.8998C287.363 24.8179 290.652 27.6609 292.981 31.4287C295.31 35.128 296.474 39.6493 296.474 44.9927C296.474 45.8833 296.44 46.7053 296.372 47.4589C296.303 48.2124 296.2 49.0345 296.063 49.9251H249.822V41.8072H285.171L281.677 46.8423C281.677 46.1573 281.677 45.5065 281.677 44.8899C281.677 44.2734 281.677 43.6568 281.677 43.0403C281.677 39.1355 280.616 36.3268 278.492 34.6142C276.368 32.9015 272.909 32.0452 268.113 32.0452C262.907 32.0452 259.276 33.0728 257.221 35.128C255.166 37.1146 254.138 40.3001 254.138 44.6844V48.5892C254.138 52.9735 255.166 56.1933 257.221 58.2484C259.276 60.2351 262.941 61.2284 268.216 61.2284C272.737 61.2284 275.923 60.6461 277.773 59.4815C279.622 58.317 280.547 56.6386 280.547 54.4464V53.4188H295.961V54.5492C295.961 58.2484 294.83 61.5367 292.57 64.4139C290.309 67.2911 287.124 69.5518 283.013 71.1959C278.971 72.7715 274.21 73.5593 268.73 73.5593Z" fill="black"/>
<path d="M396.931 72.5318H381.518V45.6092C381.518 41.3619 380.661 38.3477 378.949 36.5666C377.236 34.7854 374.153 33.8949 369.701 33.8949C365.042 33.8949 361.857 34.8882 360.144 36.8748C358.5 38.8615 357.678 42.0812 357.678 46.5341H355.726L354.492 36.8748H357.472C357.883 33.9291 358.774 31.1889 360.144 28.6542C361.583 26.1195 363.672 24.0644 366.412 22.4887C369.221 20.8446 372.818 20.0226 377.202 20.0226C381.655 20.0226 385.32 20.9131 388.197 22.6943C391.143 24.4754 393.335 26.9073 394.773 29.9901C396.212 33.0728 396.931 36.5666 396.931 40.4714V72.5318ZM318.424 72.5318H303.011V21.0501H317.294V37.0803L318.424 37.5941V72.5318ZM357.678 72.5318H342.264V45.6092C342.264 41.3619 341.408 38.3477 339.695 36.5666C337.983 34.7854 334.9 33.8949 330.447 33.8949C325.72 33.8949 322.535 34.8882 320.891 36.8748C319.247 38.8615 318.424 42.0812 318.424 46.5341H316.472L315.342 36.6693H318.116C318.596 33.7921 319.521 31.1204 320.891 28.6542C322.261 26.1195 324.282 24.0644 326.953 22.4887C329.625 20.8446 333.119 20.0226 337.435 20.0226C341.887 20.0226 345.518 20.9474 348.327 22.797C351.204 24.6467 353.328 27.1128 354.698 30.1956C356.068 33.2783 356.753 36.7036 356.753 40.4714H357.678V72.5318Z" fill="black"/>
<path d="M441.141 73.5593C435.181 73.5593 430.523 72.2235 427.166 69.5518C423.878 66.8116 421.789 63.1808 420.898 58.6595H418.226V47.5616H420.179C420.179 50.4389 420.761 52.768 421.926 54.5492C423.09 56.3303 424.769 57.5976 426.961 58.3512C429.221 59.1048 431.962 59.4815 435.181 59.4815C438.538 59.4815 441.278 59.0705 443.402 58.2484C445.526 57.4264 447.101 56.0905 448.129 54.2409C449.156 52.3913 449.67 49.9251 449.67 46.8423C449.67 43.6226 449.156 41.1222 448.129 39.341C447.101 37.4914 445.526 36.1898 443.402 35.4362C441.278 34.6142 438.572 34.2031 435.284 34.2031C430.283 34.2031 426.515 35.1622 423.981 37.0803C421.446 38.93 420.179 42.1497 420.179 46.7396H418.226L417.096 35.128H420.076C420.967 30.1956 423.09 26.462 426.447 23.9274C429.872 21.3242 434.599 20.0226 440.628 20.0226C445.902 20.0226 450.355 21.1186 453.986 23.3108C457.685 25.503 460.494 28.62 462.412 32.6618C464.33 36.6351 465.289 41.3619 465.289 46.8423C465.289 52.2542 464.33 56.9811 462.412 61.0229C460.563 64.9962 457.822 68.0789 454.192 70.2711C450.629 72.4633 446.279 73.5593 441.141 73.5593ZM420.179 90.0006H404.765V21.0501H419.048V36.361L420.179 37.6969V90.0006Z" fill="black"/>
<path d="M529.448 72.5318H514.034V45.6092C514.034 41.2934 513.007 38.2792 510.952 36.5666C508.965 34.7854 505.54 33.8949 500.676 33.8949C497.251 33.8949 494.545 34.3744 492.558 35.3335C490.571 36.2925 489.167 37.7311 488.345 39.6493C487.523 41.4989 487.112 43.8624 487.112 46.7396H484.851L485.057 36.7721H487.934C488.482 33.8264 489.544 31.0861 491.119 28.5515C492.695 26.0168 494.921 23.9616 497.799 22.386C500.744 20.8104 504.409 20.0226 508.794 20.0226C513.383 20.0226 517.22 20.9474 520.302 22.797C523.385 24.6467 525.68 27.1471 527.187 30.2983C528.694 33.4496 529.448 37.0118 529.448 40.9851V72.5318ZM487.112 72.5318H471.698V3.68408H487.112V72.5318Z" fill="black"/>
<path d="M552.64 72.5318H537.226V21.0501H552.64V72.5318ZM552.64 15.8095H537.226V3.68408H552.64V15.8095Z" fill="black"/>
<path d="M586.706 73.5593C578.074 73.5593 571.429 71.9495 566.771 68.7297C562.112 65.4415 559.783 60.8174 559.783 54.8574V54.5492H575.197V55.474C575.197 57.8032 576.019 59.3788 577.663 60.2008C579.376 60.9544 582.424 61.3312 586.808 61.3312C590.919 61.3312 593.625 60.9887 594.926 60.3036C596.296 59.55 596.981 58.4197 596.981 56.9126C596.981 55.474 596.468 54.4807 595.44 53.9326C594.412 53.3161 592.392 52.8023 589.377 52.3913L574.889 50.6444C569.751 50.0963 565.777 48.6577 562.969 46.3285C560.228 43.9994 558.858 40.6426 558.858 36.2583C558.858 33.2441 559.749 30.5381 561.53 28.1404C563.311 25.6742 566.051 23.7218 569.751 22.2832C573.518 20.7761 578.348 20.0226 584.24 20.0226C589.857 20.0226 594.618 20.7419 598.523 22.1805C602.496 23.5506 605.51 25.64 607.565 28.4487C609.621 31.2574 610.648 34.7512 610.648 38.93V39.2383H595.235V38.6217C595.235 37.1831 594.926 36.0185 594.31 35.128C593.762 34.1689 592.631 33.4496 590.919 32.97C589.275 32.4905 586.877 32.2507 583.726 32.2507C579.889 32.2507 577.32 32.6275 576.019 33.3811C574.717 34.0661 574.066 35.2307 574.066 36.8748C574.066 38.1764 574.58 39.1698 575.608 39.8548C576.704 40.4714 578.93 41.0194 582.287 41.4989L593.282 42.8348C600.133 43.5883 604.997 45.164 607.874 47.5616C610.751 49.9593 612.19 53.2818 612.19 57.5291C612.19 60.7489 611.162 63.5576 609.107 65.9553C607.052 68.353 604.14 70.2368 600.372 71.6069C596.605 72.9085 592.049 73.5593 586.706 73.5593Z" fill="black"/>
<path d="M637.214 72.5318H617.381V54.5492H637.214V72.5318Z" fill="black"/>
<path d="M48.6056 87.9449H4.3205C1.93435 87.9449 0 86.0105 0 83.6244V4.32916C0 0.347558 4.92874 -1.51462 7.56158 1.47224L51.8467 51.7118C52.5423 52.501 52.9261 53.5168 52.9261 54.5687V83.6244C52.9261 86.0105 50.9917 87.9449 48.6056 87.9449Z" fill="url(#paint0_linear_1120_325)"/>
<path d="M64.807 87.9449H109.092C111.478 87.9449 113.413 86.0105 113.413 83.6244V4.32916C113.413 0.347558 108.484 -1.51462 105.851 1.47224L61.5659 51.7118C60.8703 52.501 60.4865 53.5168 60.4865 54.5687V83.6244C60.4865 86.0105 62.4209 87.9449 64.807 87.9449Z" fill="url(#paint1_linear_1120_325)"/>
<defs>
<linearGradient id="paint0_linear_1120_325" x1="18.7235" y1="-7.10604" x2="18.7235" y2="87.9449" gradientUnits="userSpaceOnUse">
<stop stop-color="#B291FF"/>
<stop offset="1" stop-color="#1C94FF"/>
</linearGradient>
<linearGradient id="paint1_linear_1120_325" x1="94.6891" y1="-7.10604" x2="94.6891" y2="87.9449" gradientUnits="userSpaceOnUse">
<stop stop-color="#B291FF"/>
<stop offset="1" stop-color="#1C94FF"/>
</linearGradient>
</defs>
</svg>
