<svg width="421" height="171" viewBox="0 0 421 171" fill="none" xmlns="http://www.w3.org/2000/svg">
<path d="M160.223 117.903C152.792 117.903 146.997 115.847 142.836 111.736C138.725 107.624 136.669 101.755 136.669 94.1263V65H148.706V93.6805C148.706 102.993 152.57 107.649 160.297 107.649C164.062 107.649 166.935 106.535 168.916 104.306C170.897 102.027 171.888 98.4853 171.888 93.6805V65H183.776V94.1263C183.776 101.755 181.696 107.624 177.535 111.736C173.424 115.847 167.653 117.903 160.223 117.903Z" fill="#ECFDF4"/>
<path d="M189.652 91.4514H210.68V100.739H189.652V91.4514Z" fill="#ECFDF4"/>
<path d="M224.991 74.8078H208.347V65H253.672V74.8078H237.028V117.011H224.991V74.8078Z" fill="#ECFDF4"/>
<path d="M295.016 77.0369V117.011H284.02V112.256C282.484 113.99 280.651 115.327 278.521 116.268C276.391 117.16 274.088 117.606 271.611 117.606C266.361 117.606 262.2 116.095 259.129 113.073C256.058 110.052 254.522 105.569 254.522 99.6246V77.0369H266.113V97.9157C266.113 104.355 268.813 107.575 274.212 107.575C276.986 107.575 279.215 106.683 280.899 104.9C282.583 103.067 283.425 100.368 283.425 96.8011V77.0369H295.016Z" fill="#ECFDF4"/>
<path d="M313.111 82.3123C314.498 80.3805 316.355 78.9192 318.683 77.9285C321.061 76.9378 323.785 76.4425 326.856 76.4425V87.1419C325.569 87.0429 324.702 86.9933 324.256 86.9933C320.937 86.9933 318.337 87.9345 316.454 89.8168C314.572 91.6496 313.631 94.4235 313.631 98.1386V117.011H302.04V77.0369H313.111V82.3123Z" fill="#ECFDF4"/>
<path d="M354.33 76.4425C359.284 76.4425 363.271 77.9285 366.293 80.9006C369.364 83.8726 370.899 88.2812 370.899 94.1263V117.011H359.308V95.9095C359.308 92.7393 358.615 90.3864 357.228 88.8509C355.841 87.2658 353.835 86.4732 351.209 86.4732C348.287 86.4732 345.959 87.3896 344.225 89.2224C342.491 91.0056 341.624 93.6805 341.624 97.247V117.011H330.033V77.0369H341.104V81.7179C342.64 80.0337 344.547 78.7458 346.826 77.8542C349.104 76.913 351.606 76.4425 354.33 76.4425Z" fill="#ECFDF4"/>
<path fill-rule="evenodd" clip-rule="evenodd" d="M84.8865 51.4825C86.8632 49.5058 90.068 49.5058 92.0447 51.4825L110.555 69.9931L91.9605 87.7427C89.9384 89.6729 86.7345 89.5984 84.8043 87.5763C82.8741 85.5542 82.9486 82.3502 84.9707 80.4201L90.6798 74.9705H78.3424C68.4652 74.9705 60.4581 82.9776 60.4581 92.8548C60.4581 102.732 68.4652 110.739 78.3424 110.739H103.313C106.108 110.739 108.375 113.005 108.375 115.801C108.375 118.596 106.108 120.862 103.313 120.862H78.3424C62.8743 120.862 50.335 108.323 50.335 92.8548C50.335 77.3867 62.8743 64.8473 78.3424 64.8473H91.0932L84.8865 58.6407C82.9099 56.664 82.9099 53.4592 84.8865 51.4825Z" fill="url(#paint0_linear_5_1255)"/>
<defs>
<linearGradient id="paint0_linear_5_1255" x1="43.2487" y1="82.0568" x2="139.082" y2="115.801" gradientUnits="userSpaceOnUse">
<stop stop-color="#38FF4C"/>
<stop offset="0.630986" stop-color="#23DE79"/>
<stop offset="1" stop-color="white"/>
</linearGradient>
</defs>
</svg>
