<svg width="417" height="90" viewBox="0 0 417 90" fill="none" xmlns="http://www.w3.org/2000/svg">
<path d="M47.9301 32.3604C50.1873 31.0573 53.8469 31.0573 56.1041 32.3604L99.8953 57.6411C102.152 58.9441 102.152 61.0568 99.8953 62.3599L56.1041 87.6405C53.8469 88.9436 50.1873 88.9436 47.9301 87.6405L4.1389 62.3599C1.88172 61.0568 1.88173 58.9441 4.1389 57.6411L47.9301 32.3604Z" fill="#A2A2A2"/>
<path d="M47.8784 18.0794C50.1355 16.7763 53.7951 16.7763 56.0523 18.0794L99.8435 43.36C102.101 44.6631 102.101 46.7758 99.8435 48.0789L56.0523 73.3595C53.7951 74.6626 50.1355 74.6626 47.8784 73.3595L4.08714 48.0789C1.82997 46.7758 1.82997 44.6631 4.08714 43.36L47.8784 18.0794Z" fill="#CBCBCB"/>
<path d="M47.8784 2.35941C50.1355 1.05634 53.7951 1.05634 56.0523 2.35941L99.8435 27.6401C102.101 28.9431 102.101 31.0558 99.8435 32.3589L56.0523 57.6396C53.7951 58.9426 50.1355 58.9426 47.8784 57.6396L4.08714 32.3589C1.82997 31.0558 1.82997 28.9431 4.08714 27.6401L47.8784 2.35941Z" fill="#EBEBEB"/>
<path d="M140.914 68.4666L123.302 24.9035H131.081L144.834 60.1896H142.096L155.974 24.9035H163.629L145.892 68.4666H140.914ZM175.429 69.0889C172.732 69.0889 170.284 68.4043 168.085 67.0352C165.928 65.6661 164.206 63.8198 162.92 61.4965C161.675 59.1316 161.053 56.4971 161.053 53.5929C161.053 50.6472 161.675 48.0126 162.92 45.6893C164.206 43.3244 165.928 41.4574 168.085 40.0883C170.284 38.6777 172.732 37.9724 175.429 37.9724C177.711 37.9724 179.723 38.4703 181.465 39.466C183.249 40.4202 184.66 41.7479 185.697 43.4489C186.734 45.1499 187.253 47.0791 187.253 49.2366V57.8247C187.253 59.9821 186.734 61.9113 185.697 63.6124C184.701 65.3134 183.312 66.6618 181.528 67.6575C179.743 68.6118 177.711 69.0889 175.429 69.0889ZM176.549 62.6167C179.08 62.6167 181.113 61.7661 182.648 60.0651C184.224 58.3641 185.013 56.1859 185.013 53.5306C185.013 51.7466 184.66 50.1701 183.955 48.8009C183.249 47.4318 182.254 46.3738 180.967 45.627C179.723 44.8388 178.25 44.4446 176.549 44.4446C174.889 44.4446 173.416 44.8388 172.13 45.627C170.886 46.3738 169.89 47.4318 169.143 48.8009C168.438 50.1701 168.085 51.7466 168.085 53.5306C168.085 55.3146 168.438 56.8912 169.143 58.2603C169.89 59.6295 170.886 60.7082 172.13 61.4965C173.416 62.2433 174.889 62.6167 176.549 62.6167ZM184.577 68.4666V60.4385L185.759 53.1572L184.577 45.9382V38.5947H191.423V68.4666H184.577ZM219.494 68.4666V51.228C219.494 49.2366 218.851 47.5978 217.565 46.3116C216.321 45.0255 214.703 44.3824 212.711 44.3824C211.383 44.3824 210.201 44.6728 209.164 45.2536C208.127 45.8345 207.318 46.6435 206.737 47.6807C206.156 48.718 205.865 49.9004 205.865 51.228L203.189 49.7344C203.189 47.4525 203.687 45.4403 204.683 43.6978C205.679 41.9138 207.048 40.5239 208.79 39.5282C210.574 38.491 212.566 37.9724 214.765 37.9724C217.005 37.9724 218.997 38.5532 220.739 39.7149C222.482 40.8351 223.851 42.308 224.847 44.1335C225.842 45.9175 226.34 47.7845 226.34 49.7344V68.4666H219.494ZM199.02 68.4666V38.5947H205.865V68.4666H199.02ZM247.05 69.0889C244.104 69.0889 241.428 68.4043 239.022 67.0352C236.657 65.6661 234.79 63.7991 233.421 61.4342C232.052 59.0694 231.367 56.4348 231.367 53.5306C231.367 50.5849 232.052 47.9504 233.421 45.627C234.79 43.2622 236.657 41.3952 239.022 40.0261C241.428 38.657 244.104 37.9724 247.05 37.9724C249.373 37.9724 251.531 38.4288 253.522 39.3415C255.555 40.2128 257.277 41.4782 258.688 43.1377L254.207 47.6807C253.336 46.6435 252.278 45.876 251.033 45.3781C249.83 44.8388 248.502 44.5691 247.05 44.5691C245.349 44.5691 243.835 44.9632 242.507 45.7515C241.221 46.4983 240.204 47.5355 239.458 48.8632C238.752 50.1908 238.4 51.7466 238.4 53.5306C238.4 55.2732 238.752 56.829 239.458 58.1981C240.204 59.5257 241.221 60.5837 242.507 61.372C243.835 62.1188 245.349 62.4922 247.05 62.4922C248.502 62.4922 249.83 62.2433 251.033 61.7454C252.278 61.206 253.336 60.4178 254.207 59.3805L258.688 63.9235C257.277 65.5831 255.555 66.8692 253.522 67.782C251.531 68.6533 249.373 69.0889 247.05 69.0889ZM276.707 69.0889C273.802 69.0889 271.168 68.4043 268.803 67.0352C266.438 65.6246 264.55 63.7368 263.14 61.372C261.771 59.0071 261.086 56.3726 261.086 53.4684C261.086 50.5642 261.771 47.9504 263.14 45.627C264.55 43.3037 266.438 41.4574 268.803 40.0883C271.168 38.6777 273.802 37.9724 276.707 37.9724C279.652 37.9724 282.307 38.657 284.672 40.0261C287.037 41.3952 288.904 43.2622 290.273 45.627C291.684 47.9504 292.389 50.5642 292.389 53.4684C292.389 56.3726 291.684 59.0071 290.273 61.372C288.904 63.7368 287.037 65.6246 284.672 67.0352C282.307 68.4043 279.652 69.0889 276.707 69.0889ZM276.707 62.4922C278.408 62.4922 279.901 62.1188 281.187 61.372C282.515 60.5837 283.531 59.505 284.237 58.1359C284.984 56.7668 285.357 55.2109 285.357 53.4684C285.357 51.7259 284.984 50.1908 284.237 48.8632C283.49 47.5355 282.473 46.4983 281.187 45.7515C279.901 44.9632 278.408 44.5691 276.707 44.5691C275.047 44.5691 273.553 44.9632 272.226 45.7515C270.94 46.4983 269.923 47.5355 269.176 48.8632C268.471 50.1908 268.118 51.7259 268.118 53.4684C268.118 55.2109 268.471 56.7668 269.176 58.1359C269.923 59.505 270.94 60.5837 272.226 61.372C273.553 62.1188 275.047 62.4922 276.707 62.4922ZM310.342 69.0889C307.811 69.0889 305.55 68.5288 303.559 67.4086C301.609 66.2884 300.074 64.7533 298.953 62.8034C297.875 60.8119 297.335 58.53 297.335 55.9577V38.5947H304.181V55.6466C304.181 57.0987 304.409 58.3433 304.865 59.3805C305.363 60.3763 306.069 61.1438 306.981 61.6832C307.936 62.2225 309.056 62.4922 310.342 62.4922C312.333 62.4922 313.848 61.9113 314.885 60.7497C315.964 59.5465 316.503 57.8455 316.503 55.6466V38.5947H323.349V55.9577C323.349 58.5715 322.789 60.8741 321.668 62.8656C320.59 64.8156 319.075 66.3506 317.125 67.4708C315.175 68.5495 312.914 69.0889 310.342 69.0889ZM340.314 68.4666L326.684 38.5947H334.277L344.67 62.9278H340.189L350.644 38.5947H357.925L344.296 68.4666H340.314ZM374.801 69.0889C371.814 69.0889 369.117 68.4251 366.71 67.0974C364.346 65.7283 362.458 63.8613 361.047 61.4965C359.678 59.1316 358.994 56.4763 358.994 53.5306C358.994 50.5849 359.678 47.9504 361.047 45.627C362.416 43.2622 364.263 41.3952 366.586 40.0261C368.951 38.657 371.565 37.9724 374.427 37.9724C377.207 37.9724 379.655 38.6155 381.771 39.9016C383.928 41.1878 385.609 42.951 386.812 45.1914C388.056 47.4318 388.679 49.9834 388.679 52.8461C388.679 53.3439 388.637 53.8625 388.554 54.4019C388.513 54.8998 388.43 55.4599 388.305 56.0822H363.786V50.4812H384.758L382.207 52.7216C382.124 50.8961 381.771 49.361 381.149 48.1164C380.526 46.8717 379.634 45.9175 378.473 45.2536C377.352 44.5898 375.962 44.2579 374.303 44.2579C372.56 44.2579 371.046 44.6313 369.76 45.3781C368.474 46.1249 367.478 47.1829 366.773 48.552C366.067 49.8796 365.715 51.4769 365.715 53.3439C365.715 55.2109 366.088 56.8497 366.835 58.2603C367.582 59.671 368.64 60.7704 370.009 61.5587C371.378 62.3055 372.955 62.6789 374.739 62.6789C376.274 62.6789 377.684 62.4092 378.97 61.8699C380.298 61.3305 381.418 60.5422 382.331 59.505L386.687 63.9235C385.235 65.6246 383.472 66.9107 381.397 67.782C379.323 68.6533 377.124 69.0889 374.801 69.0889ZM394.166 68.4666V38.5947H401.012V68.4666H394.166ZM401.012 51.8503L398.647 50.6679C398.647 46.8925 399.477 43.843 401.136 41.5197C402.838 39.1548 405.389 37.9724 408.791 37.9724C410.285 37.9724 411.633 38.2421 412.836 38.7814C414.039 39.3208 415.16 40.192 416.197 41.3952L411.716 46.0004C411.177 45.4196 410.575 45.0047 409.911 44.7558C409.248 44.5069 408.48 44.3824 407.609 44.3824C405.7 44.3824 404.124 44.984 402.879 46.1871C401.634 47.3903 401.012 49.278 401.012 51.8503Z" fill="url(#paint0_linear_1111_363)"/>
<defs>
<linearGradient id="paint0_linear_1111_363" x1="121.808" y1="44.3521" x2="416.808" y2="44.3521" gradientUnits="userSpaceOnUse">
<stop stop-color="#DEC880"/>
<stop offset="0.155674" stop-color="white"/>
<stop offset="0.567708" stop-color="#FF347D"/>
<stop offset="1" stop-color="#827DED"/>
</linearGradient>
</defs>
</svg>
