<svg version="1.1" id="Layer_1" xmlns="http://www.w3.org/2000/svg" xmlns:xlink="http://www.w3.org/1999/xlink" x="0px" y="0px"
	 width="100%" viewBox="0 0 500 500" enable-background="new 0 0 500 500" xml:space="preserve">
<path fill="#FFFFFF" opacity="1.000000" stroke="none" 
	d="
M463.000000,501.000000 
	C308.666718,501.000000 154.833405,501.000000 1.000082,501.000000 
	C1.000055,334.333405 1.000055,167.666824 1.000028,1.000172 
	C167.666550,1.000115 334.333099,1.000115 500.999756,1.000057 
	C500.999817,167.666519 500.999817,334.333038 500.999908,500.999756 
	C488.500000,501.000000 476.000000,501.000000 463.000000,501.000000 
M291.481537,248.678940 
	C291.058685,251.643021 290.464569,254.594269 290.241699,257.573303 
	C289.079041,273.115387 296.533356,285.140106 310.411621,289.285706 
	C321.377777,292.561371 332.457550,292.191040 343.163879,287.932587 
	C353.153320,283.959320 358.384216,275.535248 357.564697,265.398560 
	C350.678741,265.398560 343.792877,265.398560 336.998535,265.398560 
	C334.659149,273.657196 330.415955,276.705231 322.986023,275.709290 
	C316.307220,274.814026 313.181152,270.781555 313.148956,262.450043 
	C313.133636,258.484924 312.848389,254.203018 314.213562,250.652069 
	C315.283783,247.868164 318.383514,244.617447 321.142426,243.972290 
	C328.348907,242.287079 333.624512,243.158524 336.378113,253.460480 
	C343.509491,253.460480 350.620453,253.460480 357.947998,253.460480 
	C357.863922,244.193176 354.460388,237.134354 346.344727,232.693069 
	C336.375458,227.237381 325.721527,226.922379 314.847961,228.643951 
	C307.168793,229.859787 300.724426,233.368164 295.891205,239.577286 
	C294.487823,241.380157 293.156219,243.238922 291.893616,244.133911 
	C291.893219,240.304703 291.643219,236.454407 291.964569,232.652405 
	C292.269196,229.048218 290.693085,228.132538 287.444977,227.835022 
	C279.252502,227.084671 272.886536,229.816238 268.344543,237.703018 
	C267.686554,234.380508 267.189575,231.870941 266.662018,229.207031 
	C260.530243,229.207031 254.441132,229.207031 248.157501,229.207031 
	C248.157501,249.467712 248.157501,269.522339 248.157501,289.621277 
	C255.857819,289.621277 263.374542,289.621277 271.006134,289.621277 
	C271.006134,279.919586 270.846191,270.594788 271.052826,261.278107 
	C271.244415,252.639999 275.444977,248.582092 284.054535,248.153702 
	C286.376770,248.038162 288.702332,247.989883 291.481537,248.678940 
M380.452545,289.201141 
	C390.096069,291.979675 399.852600,291.908447 409.566101,289.893250 
	C421.423431,287.433258 428.072113,279.752136 428.684265,268.138641 
	C421.414581,268.138641 414.155121,268.138641 406.933838,268.138641 
	C404.390106,275.471130 399.638489,277.994110 391.805176,276.265930 
	C385.687927,274.916290 382.905792,270.595490 383.807678,263.375793 
	C398.681488,263.375793 413.610748,263.375793 428.913483,263.375793 
	C428.899109,251.167282 427.890594,239.447174 416.275421,233.061356 
	C402.104156,225.270248 387.110413,225.188080 372.979919,233.265366 
	C362.013611,239.533936 359.747772,250.548187 360.321350,262.247101 
	C360.960693,275.286957 366.953217,284.618683 380.452545,289.201141 
M182.544373,285.969666 
	C196.210907,295.818512 208.294769,291.483032 219.698059,281.548279 
	C220.264877,284.523071 220.779739,287.225220 221.242630,289.654663 
	C227.780167,289.654663 233.851273,289.654663 239.661560,289.654663 
	C239.661560,269.241547 239.661560,249.177872 239.661560,229.339386 
	C231.912842,229.339386 224.507675,229.339386 216.997299,229.339386 
	C216.997299,239.164429 217.008621,248.649963 216.990051,258.135468 
	C216.984833,260.797791 217.137650,263.492828 216.786804,266.115204 
	C216.095490,271.282562 212.206512,274.397339 207.114929,274.211731 
	C202.403915,274.039948 199.966690,271.251465 199.826202,265.410065 
	C199.678085,259.251129 199.778091,253.086212 199.774490,246.923904 
	C199.771042,241.000443 199.773743,235.076996 199.773743,229.361328 
	C191.663498,229.361328 184.261627,229.361328 176.780701,229.361328 
	C176.780701,242.046616 176.777115,254.370331 176.785889,266.694031 
	C176.786835,268.025574 176.561203,269.452332 176.950958,270.671844 
	C178.536377,275.632324 180.320618,280.529266 182.544373,285.969666 
M167.496918,240.079865 
	C162.581696,233.761826 156.170273,229.783051 148.259598,228.773117 
	C143.026520,228.105026 137.636948,227.650894 132.412582,228.132645 
	C120.807076,229.202820 110.939491,233.976883 106.739937,245.561722 
	C102.361122,257.641052 102.318863,270.031311 110.983353,280.467773 
	C120.623383,292.079315 134.074860,292.251770 147.625656,290.462708 
	C154.342941,289.575836 160.344025,286.753845 165.068466,281.676025 
	C174.351700,271.698425 175.503357,255.021118 167.496918,240.079865 
M71.500893,291.288208 
	C78.450020,289.902588 85.648926,289.239227 92.283737,286.944702 
	C100.209152,284.203827 102.600098,277.063141 102.612274,269.245636 
	C102.624092,261.659637 98.365868,256.756805 91.579079,254.203766 
	C87.572220,252.696472 83.268387,251.948669 79.066910,250.997070 
	C74.858086,250.043808 70.564606,249.430222 66.408852,248.298340 
	C65.221062,247.974838 63.894432,246.500870 63.564468,245.298416 
	C63.360050,244.553482 64.700035,242.935089 65.713882,242.383179 
	C70.149429,239.968582 76.104561,241.559433 79.338181,245.675659 
	C79.869713,246.352280 80.826942,247.103165 81.599998,247.117004 
	C88.034760,247.232086 94.472473,247.182281 100.997520,247.182281 
	C100.896576,239.719574 97.599174,234.809265 91.536194,231.972717 
	C78.779892,226.004684 65.687576,226.276718 52.735886,231.103088 
	C44.755226,234.077026 41.171581,240.098312 41.281952,248.623016 
	C41.384022,256.506439 45.944187,261.152161 52.818462,263.872620 
	C55.424606,264.903992 58.206661,265.534454 60.950500,266.165100 
	C66.292854,267.392944 71.718552,268.299683 76.988647,269.772644 
	C78.393929,270.165405 80.325485,272.177551 80.264969,273.356354 
	C80.200684,274.608612 78.257004,276.349579 76.786125,276.845703 
	C69.445595,279.321686 63.578674,276.802063 60.473789,270.289490 
	C53.632469,270.289490 46.838699,270.289490 39.969215,270.289490 
	C39.680363,275.909302 41.821068,280.127106 45.928890,283.556244 
	C53.120216,289.559479 61.685310,291.009277 71.500893,291.288208 
M434.011841,275.541870 
	C434.011841,280.298035 434.011841,285.054199 434.011841,289.691162 
	C442.502808,289.691162 450.390686,289.691162 458.243408,289.691162 
	C458.243408,281.975861 458.243408,274.583374 458.243408,267.308105 
	C450.000580,267.308105 442.096191,267.308105 434.011810,267.308105 
	C434.011810,269.933075 434.011810,272.246582 434.011841,275.541870 
z"/>
<path fill="#030303" opacity="1.000000" stroke="none" 
	d="
M380.070435,289.090393 
	C366.953217,284.618683 360.960693,275.286957 360.321350,262.247101 
	C359.747772,250.548187 362.013611,239.533936 372.979919,233.265366 
	C387.110413,225.188080 402.104156,225.270248 416.275421,233.061356 
	C427.890594,239.447174 428.899109,251.167282 428.913483,263.375793 
	C413.610748,263.375793 398.681488,263.375793 383.807678,263.375793 
	C382.905792,270.595490 385.687927,274.916290 391.805176,276.265930 
	C399.638489,277.994110 404.390106,275.471130 406.933838,268.138641 
	C414.155121,268.138641 421.414581,268.138641 428.684265,268.138641 
	C428.072113,279.752136 421.423431,287.433258 409.566101,289.893250 
	C399.852600,291.908447 390.096069,291.979675 380.070435,289.090393 
M404.325806,247.277069 
	C400.862640,242.660034 396.006927,241.068542 390.402496,243.103455 
	C386.219940,244.622116 383.662933,247.567032 383.771606,252.444733 
	C391.043182,252.444733 398.088409,252.444733 405.498322,252.444733 
	C405.218506,250.731430 404.986328,249.309784 404.325806,247.277069 
z"/>
<path fill="#020202" opacity="1.000000" stroke="none" 
	d="
M182.287964,285.709656 
	C180.320618,280.529266 178.536377,275.632324 176.950958,270.671844 
	C176.561203,269.452332 176.786835,268.025574 176.785889,266.694031 
	C176.777115,254.370331 176.780701,242.046616 176.780701,229.361328 
	C184.261627,229.361328 191.663498,229.361328 199.773743,229.361328 
	C199.773743,235.076996 199.771042,241.000443 199.774490,246.923904 
	C199.778091,253.086212 199.678085,259.251129 199.826202,265.410065 
	C199.966690,271.251465 202.403915,274.039948 207.114929,274.211731 
	C212.206512,274.397339 216.095490,271.282562 216.786804,266.115204 
	C217.137650,263.492828 216.984833,260.797791 216.990051,258.135468 
	C217.008621,248.649963 216.997299,239.164429 216.997299,229.339386 
	C224.507675,229.339386 231.912842,229.339386 239.661560,229.339386 
	C239.661560,249.177872 239.661560,269.241547 239.661560,289.654663 
	C233.851273,289.654663 227.780167,289.654663 221.242630,289.654663 
	C220.779739,287.225220 220.264877,284.523071 219.698059,281.548279 
	C208.294769,291.483032 196.210907,295.818512 182.287964,285.709656 
z"/>
<path fill="#030303" opacity="1.000000" stroke="none" 
	d="
M167.707642,240.380692 
	C175.503357,255.021118 174.351700,271.698425 165.068466,281.676025 
	C160.344025,286.753845 154.342941,289.575836 147.625656,290.462708 
	C134.074860,292.251770 120.623383,292.079315 110.983353,280.467773 
	C102.318863,270.031311 102.361122,257.641052 106.739937,245.561722 
	C110.939491,233.976883 120.807076,229.202820 132.412582,228.132645 
	C137.636948,227.650894 143.026520,228.105026 148.259598,228.773117 
	C156.170273,229.783051 162.581696,233.761826 167.707642,240.380692 
M134.575424,243.824203 
	C130.548584,244.841446 128.117050,247.589752 127.817703,251.534134 
	C127.418686,256.791779 127.144112,262.170837 127.817749,267.367920 
	C128.565933,273.140015 132.499313,275.800568 138.366882,275.849670 
	C144.390793,275.900085 148.301590,273.078125 149.343475,267.160065 
	C149.999557,263.433319 149.983719,259.542877 149.879684,255.736542 
	C149.618958,246.196884 144.893356,242.338989 134.575424,243.824203 
z"/>
<path fill="#040404" opacity="1.000000" stroke="none" 
	d="
M71.072113,291.280762 
	C61.685310,291.009277 53.120216,289.559479 45.928890,283.556244 
	C41.821068,280.127106 39.680363,275.909302 39.969215,270.289490 
	C46.838699,270.289490 53.632469,270.289490 60.473789,270.289490 
	C63.578674,276.802063 69.445595,279.321686 76.786125,276.845703 
	C78.257004,276.349579 80.200684,274.608612 80.264969,273.356354 
	C80.325485,272.177551 78.393929,270.165405 76.988647,269.772644 
	C71.718552,268.299683 66.292854,267.392944 60.950500,266.165100 
	C58.206661,265.534454 55.424606,264.903992 52.818462,263.872620 
	C45.944187,261.152161 41.384022,256.506439 41.281952,248.623016 
	C41.171581,240.098312 44.755226,234.077026 52.735886,231.103088 
	C65.687576,226.276718 78.779892,226.004684 91.536194,231.972717 
	C97.599174,234.809265 100.896576,239.719574 100.997520,247.182281 
	C94.472473,247.182281 88.034760,247.232086 81.599998,247.117004 
	C80.826942,247.103165 79.869713,246.352280 79.338181,245.675659 
	C76.104561,241.559433 70.149429,239.968582 65.713882,242.383179 
	C64.700035,242.935089 63.360050,244.553482 63.564468,245.298416 
	C63.894432,246.500870 65.221062,247.974838 66.408852,248.298340 
	C70.564606,249.430222 74.858086,250.043808 79.066910,250.997070 
	C83.268387,251.948669 87.572220,252.696472 91.579079,254.203766 
	C98.365868,256.756805 102.624092,261.659637 102.612274,269.245636 
	C102.600098,277.063141 100.209152,284.203827 92.283737,286.944702 
	C85.648926,289.239227 78.450020,289.902588 71.072113,291.280762 
z"/>
<path fill="#040404" opacity="1.000000" stroke="none" 
	d="
M291.791748,245.072083 
	C293.156219,243.238922 294.487823,241.380157 295.891205,239.577286 
	C300.724426,233.368164 307.168793,229.859787 314.847961,228.643951 
	C325.721527,226.922379 336.375458,227.237381 346.344727,232.693069 
	C354.460388,237.134354 357.863922,244.193176 357.947998,253.460480 
	C350.620453,253.460480 343.509491,253.460480 336.378113,253.460480 
	C333.624512,243.158524 328.348907,242.287079 321.142426,243.972290 
	C318.383514,244.617447 315.283783,247.868164 314.213562,250.652069 
	C312.848389,254.203018 313.133636,258.484924 313.148956,262.450043 
	C313.181152,270.781555 316.307220,274.814026 322.986023,275.709290 
	C330.415955,276.705231 334.659149,273.657196 336.998535,265.398560 
	C343.792877,265.398560 350.678741,265.398560 357.564697,265.398560 
	C358.384216,275.535248 353.153320,283.959320 343.163879,287.932587 
	C332.457550,292.191040 321.377777,292.561371 310.411621,289.285706 
	C296.533356,285.140106 289.079041,273.115387 290.241699,257.573303 
	C290.464569,254.594269 291.058685,251.643021 291.243591,247.982910 
	C291.267700,246.548599 291.529724,245.810333 291.791748,245.072083 
z"/>
<path fill="#010101" opacity="1.000000" stroke="none" 
	d="
M291.842682,244.602997 
	C291.529724,245.810333 291.267700,246.548599 291.016022,247.598816 
	C288.702332,247.989883 286.376770,248.038162 284.054535,248.153702 
	C275.444977,248.582092 271.244415,252.639999 271.052826,261.278107 
	C270.846191,270.594788 271.006134,279.919586 271.006134,289.621277 
	C263.374542,289.621277 255.857819,289.621277 248.157501,289.621277 
	C248.157501,269.522339 248.157501,249.467712 248.157501,229.207031 
	C254.441132,229.207031 260.530243,229.207031 266.662018,229.207031 
	C267.189575,231.870941 267.686554,234.380508 268.344543,237.703018 
	C272.886536,229.816238 279.252502,227.084671 287.444977,227.835022 
	C290.693085,228.132538 292.269196,229.048218 291.964569,232.652405 
	C291.643219,236.454407 291.893219,240.304703 291.842682,244.602997 
z"/>
<path fill="#050505" opacity="1.000000" stroke="none" 
	d="
M434.011841,275.050964 
	C434.011810,272.246582 434.011810,269.933075 434.011810,267.308105 
	C442.096191,267.308105 450.000580,267.308105 458.243408,267.308105 
	C458.243408,274.583374 458.243408,281.975861 458.243408,289.691162 
	C450.390686,289.691162 442.502808,289.691162 434.011841,289.691162 
	C434.011841,285.054199 434.011841,280.298035 434.011841,275.050964 
z"/>
<path fill="#EEEEEE" opacity="1.000000" stroke="none" 
	d="
M404.539978,247.582596 
	C404.986328,249.309784 405.218506,250.731430 405.498322,252.444733 
	C398.088409,252.444733 391.043182,252.444733 383.771606,252.444733 
	C383.662933,247.567032 386.219940,244.622116 390.402496,243.103455 
	C396.006927,241.068542 400.862640,242.660034 404.539978,247.582596 
z"/>
<path fill="#F9F9F9" opacity="1.000000" stroke="none" 
	d="
M134.957825,243.708984 
	C144.893356,242.338989 149.618958,246.196884 149.879684,255.736542 
	C149.983719,259.542877 149.999557,263.433319 149.343475,267.160065 
	C148.301590,273.078125 144.390793,275.900085 138.366882,275.849670 
	C132.499313,275.800568 128.565933,273.140015 127.817749,267.367920 
	C127.144112,262.170837 127.418686,256.791779 127.817703,251.534134 
	C128.117050,247.589752 130.548584,244.841446 134.957825,243.708984 
z"/>
</svg>